<svg xmlns="http://www.w3.org/2000/svg" viewBox="0 0 134.09 212.4"><g id="Calque_2" data-name="Calque 2"><g id="Typo_3" data-name="Typo 3"><rect width="27.81" height="212.4"/><path d="M127.38,33.88a58,58,0,0,0-18.54-20.61A68.46,68.46,0,0,0,85.45,3.14,137.5,137.5,0,0,0,55.81,0V24.3a102.69,102.69,0,0,1,18,1.8,44.61,44.61,0,0,1,15.62,6.28,31.81,31.81,0,0,1,11.48,13.27,44.94,44.94,0,0,1,3.78,19.11,50,50,0,0,1-2.85,17.69,40.39,40.39,0,0,1-9.13,14,37.24,37.24,0,0,1-17.54,9.91,94.36,94.36,0,0,1-19.37,2.6v24.25q20.26-.41,33.92-5.52a72.59,72.59,0,0,0,25.81-16.41,61.59,61.59,0,0,0,13.63-21,70,70,0,0,0,4.92-26.17Q134.09,46.36,127.38,33.88Z"/></g></g></svg>