<svg xmlns="http://www.w3.org/2000/svg" viewBox="0 0 164.47 212.4"><g id="Calque_2" data-name="Calque 2"><g id="Typo_3" data-name="Typo 3"><path d="M86.3,120.33c18-5,26.91-13.15,34.81-23.62S133,73.23,133,57.63q0-16.69-6.49-28a53.11,53.11,0,0,0-17.62-18.4A60.09,60.09,0,0,0,85.37,2,190.65,190.65,0,0,0,56.3,0V24.25A100.85,100.85,0,0,1,76,25.89a38.85,38.85,0,0,1,14,5.64,27.76,27.76,0,0,1,10.13,11.76,39.51,39.51,0,0,1,3.28,16.48,58.44,58.44,0,0,1-2.92,19.4,36.94,36.94,0,0,1-9.06,14.26,33.49,33.49,0,0,1-16.55,8.85,98.15,98.15,0,0,1-18.59,2.1V128l71.51,84.45h36.66Z"/><polygon points="28.3 104.42 28.24 104.42 28.24 24.25 28.3 24.25 28.3 0 0 0 0 212.4 28.24 212.4 28.24 127.95 28.3 127.95 28.3 104.42"/></g></g></svg>